<?xml version="1.0" standalone="no"?>
<!DOCTYPE svg PUBLIC "-//W3C//DTD SVG 20010904//EN"
 "http://www.w3.org/TR/2001/REC-SVG-20010904/DTD/svg10.dtd">
<svg version="1.0" xmlns="http://www.w3.org/2000/svg"
 width="1200.000000pt" height="1200.000000pt" viewBox="0 0 1200.000000 1200.000000"
 preserveAspectRatio="xMidYMid meet">

<g transform="translate(0.000000,1200.000000) scale(0.100000,-0.100000)"
fill="#000000" stroke="none">
<path d="M5998 9189 c-273 -82 -593 -243 -820 -411 -126 -94 -281 -250 -350
-353 -174 -260 -350 -750 -469 -1307 -19 -87 -36 -158 -40 -158 -3 0 -24 27
-48 60 -23 33 -45 59 -49 57 -4 -2 -76 -45 -159 -96 -84 -51 -158 -91 -164
-89 -6 2 -169 243 -362 537 l-352 533 -149 56 -148 56 -187 -94 -186 -95 -51
-167 -51 -167 314 -508 c173 -279 339 -547 368 -595 l54 -87 -122 -107 c-67
-59 -128 -113 -136 -120 -17 -15 -21 -9 147 -208 l124 -146 -51 -89 c-99 -172
-175 -362 -202 -502 -6 -35 -12 -107 -12 -159 -1 -108 12 -140 89 -241 175
-228 909 -783 2166 -1637 266 -181 694 -465 914 -607 l81 -53 104 76 c656 480
1549 1167 2048 1576 403 330 758 659 838 776 68 100 77 128 77 225 0 203 -127
453 -386 763 l-69 82 80 181 c45 100 81 185 81 189 0 5 -81 50 -180 102 -99
51 -180 97 -180 101 0 5 139 298 310 652 l310 644 -46 123 c-25 68 -51 128
-57 135 -14 14 -369 163 -389 163 -7 0 -63 -19 -125 -42 l-112 -43 -331 -607
c-183 -334 -337 -614 -344 -622 -9 -12 -30 -6 -141 44 l-130 57 -12 254 c-20
436 -74 754 -155 929 -78 166 -233 331 -503 535 -222 167 -663 436 -714 434
-14 0 -70 -13 -123 -30z m92 -405 c0 -3 -22 -135 -50 -293 -27 -158 -50 -295
-50 -303 0 -11 14 -18 48 -23 l47 -7 -143 -50 c-79 -28 -140 -54 -135 -58 4
-4 47 -24 96 -45 48 -22 87 -42 87 -45 0 -3 -65 -36 -145 -74 -166 -79 -585
-298 -628 -328 -15 -11 -30 -19 -31 -17 -2 2 5 51 15 109 11 58 18 109 16 114
-3 10 -568 -1632 -567 -1650 0 -20 142 -259 245 -414 113 -169 234 -326 341
-441 77 -83 77 -82 -56 23 -310 247 -517 508 -600 758 -40 122 -39 143 29 360
215 695 425 1226 574 1452 30 46 122 175 205 288 83 113 149 207 146 209 -5 5
-179 -126 -289 -218 -112 -94 -246 -228 -281 -281 -15 -22 -29 -39 -31 -37 -2
2 17 53 42 112 117 279 246 448 424 552 111 66 288 151 506 244 152 65 185 76
185 63z m2628 -861 c15 -9 28 -18 30 -19 2 -1 -5 -18 -15 -38 -14 -29 -22 -36
-38 -32 -13 4 -26 -2 -37 -16 -16 -22 -16 -22 -56 -4 l-41 18 32 49 c39 59 77
72 125 42z m-108 -153 c43 -22 60 -36 60 -50 0 -11 18 -40 40 -64 l40 -44 -67
-7 c-64 -7 -93 -18 -93 -35 0 -4 18 -28 40 -53 l40 -46 -57 -6 c-32 -4 -64 -8
-71 -10 -27 -9 -23 -36 12 -79 39 -48 35 -56 -24 -56 -42 0 -80 -17 -80 -36 0
-8 16 -36 36 -60 l36 -44 -28 0 c-57 0 -105 -13 -114 -31 -8 -13 -2 -27 26
-61 l36 -43 -43 -7 c-76 -13 -87 -18 -94 -39 -5 -16 2 -30 30 -59 l37 -38 -48
-7 c-74 -10 -83 -14 -90 -41 -5 -20 0 -33 25 -58 36 -37 32 -46 -18 -46 -42 0
-81 -23 -81 -49 0 -9 16 -33 36 -52 35 -34 35 -34 12 -41 -13 -3 -40 -6 -60
-7 -28 -1 -42 -7 -53 -25 l-16 -24 -67 30 c-37 17 -68 31 -70 33 -1 1 97 198
219 436 122 239 257 505 300 592 44 86 81 157 84 157 3 0 32 -14 65 -30z
m-5737 -89 c17 -29 17 -30 -3 -36 -16 -5 -18 -10 -10 -25 17 -31 11 -47 -22
-69 l-33 -20 -23 45 c-32 62 -27 102 17 131 37 25 46 22 74 -26z m143 -112
c31 7 58 11 60 8 3 -3 -7 -33 -21 -67 -22 -52 -24 -65 -13 -76 11 -11 23 -11
71 0 31 7 57 12 57 10 0 -1 -12 -30 -26 -63 -34 -78 -28 -96 29 -87 23 3 52 9
64 12 l23 6 -25 -56 c-42 -94 -31 -114 52 -96 25 6 47 9 50 7 2 -2 -6 -24 -17
-48 -39 -87 -22 -116 57 -95 l52 14 -21 -52 c-37 -91 -25 -114 51 -99 28 6 51
9 51 7 0 -1 -10 -28 -22 -59 l-21 -56 20 -20 c18 -18 25 -19 63 -9 23 6 44 10
45 8 2 -2 -5 -23 -16 -47 -23 -51 -23 -61 -5 -86 12 -16 18 -17 61 -6 26 6 50
10 52 7 3 -3 -5 -30 -17 -60 -20 -46 -21 -58 -10 -71 15 -18 14 -20 -59 -73
l-55 -39 -299 461 c-165 254 -328 505 -363 558 l-63 98 57 39 c42 29 60 36 70
28 9 -7 29 -6 68 2z m3218 -30 c48 -22 74 -46 40 -36 -97 29 -269 39 -308 18
-31 -17 -59 -75 -92 -194 -69 -244 -58 -222 -115 -246 -74 -32 -193 -61 -281
-68 l-76 -6 -18 34 c-10 21 -18 58 -18 94 l-1 59 130 88 c144 97 432 249 516
273 69 19 163 13 223 -16z m-466 -745 c17 -7 32 -17 32 -23 0 -14 -72 -68
-121 -91 -82 -37 -138 -19 -173 54 -21 45 -20 53 6 62 75 23 195 23 256 -2z
m970 4 c35 -11 39 -25 17 -68 -47 -90 -131 -91 -252 -1 -50 36 -53 48 -15 62
68 27 176 30 250 7z m-1347 -308 c159 -103 299 -106 473 -12 45 25 58 27 160
26 124 -1 168 -13 262 -69 70 -43 163 -72 258 -82 l70 -8 -88 -34 c-100 -39
-242 -124 -299 -179 -21 -20 -54 -63 -73 -94 -71 -116 -184 -184 -295 -176
-49 4 -64 10 -132 61 -91 69 -201 185 -257 270 -22 34 -40 58 -40 54 0 -5 16
-46 35 -93 102 -246 232 -452 370 -587 86 -85 248 -213 304 -242 52 -26 61
-42 61 -110 0 -42 -32 -125 -48 -125 -16 0 -381 378 -507 525 -273 317 -372
475 -401 633 -14 80 -19 276 -8 331 l7 31 43 -40 c24 -22 72 -58 105 -80z
m2745 -562 c11 -11 6 -56 -32 -278 -25 -146 -48 -268 -52 -271 -40 -34 -1904
-1530 -1919 -1539 -18 -12 -92 17 -654 253 -349 146 -651 273 -671 282 -21 8
-38 14 -38 11 0 -2 299 -279 665 -616 366 -336 665 -614 665 -616 0 -5 -38 20
-425 271 -1063 691 -1865 1247 -2073 1440 -55 51 -74 76 -83 108 -25 92 11
235 91 361 23 36 43 66 44 66 1 0 1 -26 1 -57 1 -93 24 -127 130 -190 138 -82
1001 -503 1030 -503 3 0 -85 91 -196 203 -304 304 -495 527 -554 646 -36 70
-31 144 15 237 32 65 61 94 136 139 l42 25 16 -71 c53 -233 250 -495 538 -712
286 -216 1319 -867 1354 -853 35 14 661 459 969 690 354 265 577 449 706 582
104 108 109 119 109 256 0 106 1 114 22 127 52 33 136 37 164 9z"/>
</g>
</svg>
