<svg xmlns="http://www.w3.org/2000/svg" width="1200" height="1200">
  <path d="m625 282 2 1a521 521 0 0 1 67 45c38 31 49 62 55 109a444 444 0 0 1 2 56l2 1 15 6 9 3 1-2 21-39a977 977 0 0 0 39-71c3-8 6-12 13-15 10-4 18-6 29-3l2 1 8 3 2 1c11 5 19 8 23 19 4 12 4 19-2 30l-1 3-3 5-6 13-1 3a1842 1842 0 0 0-39 79l-1 3-1 2-2 4v6a74 74 0 0 0 10 5 970 970 0 0 0 24 12l-4 13a14506 14506 0 0 0-11 26l6 8c20 22 40 51 39 82-2 15-16 27-26 38a1118 1118 0 0 0-29 26 1400 1400 0 0 0-39 33l-3 2-8 7-2 1a886 886 0 0 1-51 41l-13 10-22 17-3 2-10 8-2 2a1751 1751 0 0 1-96 71l-5 2-10-5-4-3-2-1-12-8-5-4-2-1-70-47-2-1-20-14-2-1a4800 4800 0 0 1-80-57c-109-77-109-77-116-102-3-29 8-57 24-81v-6a125 125 0 0 0-10-12 698 698 0 0 1-16-19 3035 3035 0 0 0 14-14l12-11-13-22a1509 1509 0 0 1-17-28l-2-3-13-21-5-8-2-3a2107 2107 0 0 1-12-18l-1-3-3-5c-3-3-4-5-4-10l1-4 1-3 3-11v-3c3-10 3-10 8-13a125 125 0 0 1 10-6 317 317 0 0 1 17-8l3-2c7-2 15 2 22 4l3 2c9 3 12 6 17 14a608 608 0 0 0 11 17l2 3a47780 47780 0 0 0 39 59l2 3 9 14c4-1 8-2 12-5l1-1a1159 1159 0 0 0 16-9l6-3 4 5 2 3 1 2 4-13 1-5v-2c14-60 31-125 84-162l2-1c23-17 50-29 77-38l3-1c9-3 15-2 23 3Z"/>
  <path d="m625 282 2 1a521 521 0 0 1 67 45c38 31 49 62 55 109a444 444 0 0 1 2 56l2 1 15 6 9 3 1-2 21-39a977 977 0 0 0 39-71c3-8 6-12 13-15 10-4 18-6 29-3l2 1 8 3 2 1c11 5 19 8 23 19 4 12 4 19-2 30l-1 3-3 5-6 13-1 3a1842 1842 0 0 0-39 79l-1 3-1 2-2 4v6a74 74 0 0 0 10 5 970 970 0 0 0 24 12l-4 13a14506 14506 0 0 0-11 26l6 8c20 22 40 51 39 82-2 15-16 27-26 38a1118 1118 0 0 0-29 26 1400 1400 0 0 0-39 33l-3 2-8 7-2 1a886 886 0 0 1-51 41l-13 10-22 17-3 2-10 8-2 2a1751 1751 0 0 1-96 71l-5 2-10-5-4-3-2-1-12-8-5-4-2-1-70-47-2-1-20-14-2-1a4800 4800 0 0 1-80-57c-109-77-109-77-116-102-3-29 8-57 24-81v-6a125 125 0 0 0-10-12 698 698 0 0 1-16-19 3035 3035 0 0 0 14-14l12-11-13-22a1509 1509 0 0 1-17-28l-2-3-13-21-5-8-2-3a2107 2107 0 0 1-12-18l-1-3-3-5c-3-3-4-5-4-10l1-4 1-3 3-11v-3c3-10 3-10 8-13a125 125 0 0 1 10-6 317 317 0 0 1 17-8l3-2c7-2 15 2 22 4l3 2c9 3 12 6 17 14a608 608 0 0 0 11 17l2 3a47780 47780 0 0 0 39 59l2 3 9 14c4-1 8-2 12-5l1-1a1159 1159 0 0 0 16-9l6-3 4 5 2 3 1 2 4-13 1-5v-2c14-60 31-125 84-162l2-1c23-17 50-29 77-38l3-1c9-3 15-2 23 3Zm-121 70c-25 26-36 65-45 98l-1 3-11 49-1 4-6 30-1 3-1-2-18-26c-4 1-8 2-12 5l-1 1a1159 1159 0 0 0-16 9l-6 3-5-7-1-2-5-7a6839 6839 0 0 0-21-33l-2-3a4379 4379 0 0 0-26-40c-10-18-10-18-27-28-9-2-16 1-24 6l-3 1c-6 3-6 3-10 9l-1 4-1 3-1 3-1 2c-1 8 2 13 6 19l4 5 1 2 8 13 2 3a6946 6946 0 0 1 47 76l2 3 2 3 3 6-19 16-6 7 2 2a1025 1025 0 0 1 21 25l2 5-3 6-2 2-1 3c-9 14-16 29-21 45l-1 3-1 15-1 4c1 9 10 16 16 23l3 2a182 182 0 0 0 24 21 501 501 0 0 0 60 46l11 7a3110 3110 0 0 0 124 86l55 37 3 2 3 1 10 8h5l8-5a581 581 0 0 1 37-28 1211 1211 0 0 1 53-40 4909 4909 0 0 0 166-136c20-16 20-16 29-39-2-28-25-55-43-74l-2-3-2-1v-7l2-5 2-3 1-3 3-7 1-2 3-11-35-18c0-6 3-11 6-16l1-4 5-9 7-13 1-3 15-31 6-13 17-36 2-3 1-3 3-5c0-5-2-11-5-16l-15-8-3-1c-7-3-13-4-20-2-4 2-6 4-8 7l-1 3-2 3-2 3a1249 1249 0 0 0-18 34 1043 1043 0 0 0-36 65l-1 2-4 7-1 2-3 8c-9-3-19-7-28-12l-2-1-3-1-4-1-11 23v-6c1-48 1-48-3-96l-1-6a113 113 0 0 0-51-86l-6-4a475 475 0 0 0-58-37c-27-16-94 38-113 57Z" fill="#EA3136"/>
  <path d="M807 605h2l6 2-5 32-1 8v4l-1 2c-1 8-4 12-10 16a3376 3376 0 0 0-167 134l-17 14c-6 0-11-2-17-5l-3-1-8-3a6143 6143 0 0 0-19-8l-27-12-11-4-10-5a29591 29591 0 0 1-28-12l-3-1-9-3 2 2 2 2a104647 104647 0 0 0 28 26l21 19 17 16 21 19a5768 5768 0 0 0 26 24l2 2a1856 1856 0 0 1 14 12l-2 1-4-2-2-2-3-2-6-3-2-2a960 960 0 0 0-43-28l-2-1c-42-28-85-56-126-85l-2-2c-20-13-39-27-57-42l-3-2c-5-5-9-9-9-16-1-14 4-25 11-36l5-5v9c0 5 1 8 4 12 29 24 73 38 107 54a113 113 0 0 0-13-14l-8-8-7-7-2-1a204 204 0 0 1-16-19c-28-29-28-29-28-46 0-8 4-14 9-20 9-8 9-8 14-8l1 3a113 113 0 0 0 35 59c19 20 46 35 69 50a3111 3111 0 0 1 60 37l11 7 3 2 4 2 5 3a604 604 0 0 1 55-38l9-6a1838 1838 0 0 0 100-78c10-9 10-9 15-21v-12c0-8 0-8 2-11 4-2 7-3 11-2Z" fill="#979797"/>
  <path d="M815 608c7 5 9 13 10 21 1 10 0 20-1 30l-1 2c-1 8-4 13-8 19l-3 3-2 1-6 9-2 2-3 3-6 9-3 4-6 7-1 1a30171 30171 0 0 1-41 52c62-36 62-36 103-90v-14l-2-24c5 4 9 8 13 14l2 2c7 8 14 18 16 28-1 6-4 8-8 12l-2 2a146 146 0 0 1-22 19 392 392 0 0 1-33 26l-16 12-10 9-31 22-11 9-5 4-3 1-7 6-2 1a41992 41992 0 0 1-95 69l-2 2-8 6-4 1a630 630 0 0 0-22-20l-11-9-15-15-12-11a2034 2034 0 0 0-45-41l-32-29 2-1 8 3 3 1 8 4a8373 8373 0 0 0 35 15l3 1a32518 32518 0 0 0 64 27l2 1c4 1 7 3 11 2l4-3 12-10a814 814 0 0 0 48-39 656 656 0 0 1 46-37 659 659 0 0 0 41-33 696 696 0 0 0 24-20l2-1 2-2 2-1 4-3c4-3 6-5 7-9l1-5 1-3 1-6 2-17 1-6 1-4v-3l2-6Z" fill="#333"/>
  <path d="M609 321a516 516 0 0 1-10 62h3c4 0 4 0 6 2l-26 9 11 6 3 2 3 1v2a264894991 264894991 0 0 1-79 41l-2 1 2-16 1-3v-3a391787451 391787451 0 0 1-52 152l-1 3-1 3c-1 5 0 9 2 13l1 2 2 3 1 3 16 25 1 1c12 18 25 34 40 50-3 0-4 0-6-2l-2-2-2-2-3-2-18-16-2-2c-19-18-36-39-42-65v-2c-2-8 1-14 3-22a2622 2622 0 0 0 8-23 779 779 0 0 1 21-62 308 308 0 0 1 53-96l13-18a151 151 0 0 0-26 20l-17 15-3 2c-4 5-8 9-11 15l-5 6 5-15 1-3c6-13 12-25 21-36l2-3c8-8 17-14 27-20l2-1 26-12 2-1 21-9 4-2 7-1Z" fill="#979797"/>
  <path d="m524 539 8 6c10 9 20 14 34 13 7 0 13-3 20-7 9-5 22-3 32 0l12 6c9 5 20 7 31 8-1 3-4 3-7 4-15 6-29 13-38 27-7 10-14 16-26 19-8 0-13-3-19-8-10-8-20-17-26-29a162 162 0 0 0 40 66c9 9 22 21 34 25 2 5 2 11 0 16l-2 5-1 2-9-7-2-1a966 966 0 0 1-40-43c-38-44-38-44-42-70l-1-3v-15c0-5 0-9 2-14Z" fill="#979797"/>
  <path d="m630 542 6 3c13 7 26 10 40 6l19-11c-3 20-23 40-38 53l-10 9-2 2a57 57 0 0 0-18 41v5c17-6 33-12 47-23 0 4-2 6-4 9l-2 2a1040 1040 0 0 1-7 8c-13 17-26 34-44 46l1-6 1-10v-7h-2c-23-6-45-36-57-55l-12-25-1-3-2-2v-7l1 2c9 13 23 31 38 35 9 0 16-3 23-8l8-10c9-14 28-26 45-30h-4c-11-2-21-4-30-11-10-6-22-6-34-6 12-10 24-13 38-7Z" fill="#4C4C4C"/>
  <path d="M607 320h3v56l8 1c7 2 13 6 19 10v1l-24 3 11 7c44 21 44 21 57 39l-1 2-2-1c-15-9-31-17-48-23l-4-1-3-1-3-1c-5-1-9 0-14 2l-3 2-3 1-4 2-23 11-7 3-24 14-2 2c-7 5-14 10-18 18l-1 2-15 36a8252 8252 0 0 1-26 73l-1 4c-1 5-2 7 1 11l2 4 1 2a863 863 0 0 0 33 45c23 32 23 32 51 60l-7-2-3-2-2-1-3-2a104 104 0 0 1-33-27 387 387 0 0 1-51-75c-3-3-3-6-2-10l3-12 1-3a3521 3521 0 0 1 38-111l13-36v12l-2 11 1-1 24-13a14674 14674 0 0 0 47-24l1-1 7-2v-2l-3-1-10-4-3-2-3-1 7-4 3-1 4-1a2756 2756 0 0 0 9-3l3-2-7-1a234 234 0 0 1 6-41l1-7 1-3v-2l1-3 1-6-2-1Z" fill="#4C4C4C"/>
  <path d="m627 447 4 4-3 1h-5l-2 1c-6 0-10 2-14 5-2 4-2 8-2 13v2c0 5 1 9 3 13 7 3 15 0 21-2a4374 4374 0 0 1 25-7l3-1c19-5 19-5 28 0 7 4 12 10 15 17v2l-13-4c-20-6-38 2-55 11a497 497 0 0 0-15 8c-6 4-6 4-10 4l-3-2c-19-9-40-9-60-5h-9c-3-6-6-13-4-20 8-16 35-26 50-34l3-2c14-8 27-11 43-4Z" fill="#4C4C4C"/>
  <path d="M854 419a9935 9935 0 0 1 26 12l-4 12-1 2a1003 1003 0 0 1-30 58l-13 26-2 2-10 19-10-3-3-2-3-1-3-1-8-4 18-37 1-2a1456 1456 0 0 1 23-44l9-18a5879 5879 0 0 0 5-11l1-2 4-6Zm-545 22-1 2-4 14h2l2-1 3-1h7l-1 3c-4 6-4 6-3 13 2 5 6 9 9 13l12-2-1 4-3 12 12-2-2 8v7l11-1-1 4c-2 4-2 7-2 11l11-1-2 7v6h11l-1 2-1 2v9l1 3-6 5-1 1-5 3c-3-1-4-2-6-5l-1-2-2-3-3-5-2-3-8-13a2956 2956 0 0 1-32-48l-2-4-10-14-2-3-3-5c-3-4-3-4-3-7 1-3 3-4 5-5l3-2 5-1v2l3-1h3l3-1 5-1Z" fill="gray"/>
  <path d="M756 530a41 41 0 0 1 14 5 1884 1884 0 0 1 82 39l-3 8-1 2-1 2-1 2-2 5-13-5-3-1a2880 2880 0 0 1-69-35l-2-1-2-1-5-3c2-6 3-12 6-17Zm-342 0c4 2 6 5 9 8l1 2 3 5c-1 4-4 5-7 7a620 620 0 0 0-32 21l-2 1a2995 2995 0 0 1-38 25l-2 2-2 1-4 1-7-7-2-1-3-4c1-4 3-4 6-7a787326192 787326192 0 0 0 27-18l14-9 5-4 3-2a2184 2184 0 0 0 31-21Z" fill="#4B4B4B"/>
  <path d="m629 448 1 2h-5l-2-1-5-1h-13c-5-1-6 0-10 2-6 8-8 18-10 27-2 12-2 12-7 15a92 92 0 0 1-36 7l-4-2-2-7v-2c-1-6-1-6 1-9l2-1 2-2 10-6 2-2c53-33 53-33 76-20Z" fill="#979797"/>
  <path d="m867 425 13 6-4 12-1 2a1003 1003 0 0 1-30 58l-13 26-2 2-10 19-12-4 2-5 6-1 3-1h3l-1-1-2-2-2-2-1-4 5-10 1-3 3-6 1-2c6-11 6-11 8-12a102 102 0 0 1 7-1h2c0-2 0-2-3-5l-2-3 1-4 13-3-4-4-3-4 2-6 1-3 5-9c4-2 8-2 12-2l2-1-2-1-1-2-2-2c-2-2-2-2-2-6l15-3-4-4-4-4v-5Z" fill="#4C4C4C"/>
  <path d="M305 433a43 43 0 0 1 9 11l1 3 4 6 2 3 9 14 4 6 1 2a27236 27236 0 0 1 39 61c3 5 3 5 3 8l-3 3-2 1-5 1-2-5 4-10-3 1h-8l-2-2c0-4 2-8 4-12l-2 1h-9c-2-6 0-9 2-14h-2l-3 1h-5l-2-2c0-5 2-9 4-14l-3 1-9 1c-2-6 1-10 4-16l-12 3-5-7-4-5-2-5 5-12-13 1c1-6 2-11 5-16l-2 1-3 1h-3l-6 1v-2l-2-1 12-8Z" fill="#4D4D4D"/>
  <path d="m756 530 13 4 2 1a1496 1496 0 0 1 33 17c-4 9-4 9-7 10l-11-2-2-1a1036 1036 0 0 1-34-12c2-6 3-12 6-17Zm-384 30 3 4 1 3v4l-6 7-2 2a322 322 0 0 1-20 17l-2 2h-2l-2 4a1854999416 1854999416 0 0 1-14-12c1-4 3-4 6-7l3-2 3-2 22-14c7-6 7-6 10-6Z" fill="#646464"/>
  <path d="m854 419 6 3 4 1c4 2 4 4 5 8l4 4 2 2 1 1c-3 2-6 2-10 3h-6c1 4 3 6 5 9l2 2 1 1-14 2 5-12h-6l-4 1-8 2 7-16 1-3 5-8Z" fill="gray"/>
  <path d="m309 441-1 2-4 14h2l2-1 3-1h7l-5 13c-3-3-6-6-7-10h-3l-1 2v2l-1 3-3 6 2 1-4 1a1277 1277 0 0 1-9-13l-2-3-2-3-1-4c1-3 3-4 5-5l3-2 5-1v2l3-1h3l3-1 5-1Z" fill="#7F7F7F"/>
  <path d="M883 413c2 3 3 5 3 9l-4 8-9-4v-7l-6-1-2 3c-4-1-6-1-9-4 1-5 4-8 7-11 6-3 15 4 20 7Zm-586 9c4 2 6 6 8 10l-4 3-2 1-2 1-4-2-7 1 1 2 1 4c-1 3-3 4-6 5-3-1-4-2-5-5-2-3-2-4-2-8 2-5 5-6 10-9l3-2 9-1Z" fill="#4A4A4A"/>
  <path d="m859 443-7 16-2 3-3 7-8-6-3-4h-2l2-5 1-2 5-8c6-2 11-1 17-1Z" fill="#818181"/>
  <path d="M662 519h3c4 0 8 0 12 2 0 6-2 8-6 12-3 2-6 2-10 1-5-3-11-5-15-10l3-4 13-1Zm-98 0h3c5 0 8 0 13 3-1 4-3 5-6 7l-3 2c-5 3-8 4-14 3-4-2-6-5-8-10l1-4 14-1Z" fill="#F8F8F8"/>
  <path d="m867 425 13 6c-1 7-1 7-3 10l-1 3-2 2-1 2-3 6-3-3-2-1-2-2-2-1-1-6 15-3-4-4-4-4v-5Z" fill="#4C4C4C"/>
  <path d="m835 458 10 10 2 2-1 3 3 4 4 5-14 2 5-12-17 1a76 76 0 0 1 5-12l3-3Z" fill="#7F7F7F"/>
  <path d="M318 455c4 1 5 3 7 7l2 2v5l-1 2-1 3-4 7c-4-3-8-8-9-13 1-4 3-10 6-13Z" fill="#4D4D4D"/>
  <path d="m854 419 6 3 4 1c4 2 4 4 5 8l4 4 2 2 1 1c-5 3-10 2-15 2l5-12-5 1h-12l5-10Z" fill="#7F7F7F"/>
  <path d="M875 409c0 4-1 6-3 9h-5l-2 3c-4-1-6-1-9-4 1-5 4-8 7-11 5-2 8 0 12 3Z" fill="#7B7B7B"/>
  <path d="M284 427c3 1 4 3 5 6l-1 3h-2l1 2 1 4c-1 3-3 4-6 5-3-1-4-2-5-5-2-4-3-7-1-11 3-2 4-4 8-4Z" fill="#7C7C7C"/>
  <path d="m369 537-1 4-1 3-3 6-4 1-3 1-6-1c4-11 4-11 8-13l10-1Z" fill="#F6F6F6"/>
  <path d="M801 530c12-1 12-1 16 1l5 6v2c-5 2-9 2-14 1l-7-8v-2Z" fill="#F7F7F7"/>
  <path d="m629 448 1 2h-5l-2-1-5-1h-18l-5 1v-3c11-5 23-4 34 2Z" fill="#919191"/>
  <path d="m855 416 10 5 2-4 6 2v3c1 4 1 4 3 5l6 3-2 3v-2l-2-1c-5-1-9-3-14-6l-3-1-6-3v-4Z" fill="#070707"/>
  <path d="m295 444 8 10v2l-5 1-2 1h-7l4-10 1-2 1-2Z" fill="#F6F6F6"/>
  <path d="M313 471c4 3 6 7 8 11l-14 3c1-5 3-11 6-14Z" fill="#DFDFDF"/>
  <path d="M849 443h10l-5 12c-4-1-4-3-7-6l-2-2-1-2c2-2 2-2 5-2Z" fill="#E0E0E0"/>
  <path d="m866 428-5 12-7-5-2-2-1-4a1314 1314 0 0 1 15-1Z" fill="#F9F9F9"/>
  <path d="M303 458h3l3 4 2 3 1 4-5 1-2 1h-7l1-4 1-3 3-6Zm549-1-5 12-7-5-2-2-1-4 15-1Z" fill="#E1E1E1"/>
  <path d="m837 486-5 12h-2l-4-4-2-3-1-4 14-1Zm-498 26c4 2 6 4 8 8v3l-4 1-3 1h-6l5-13Z" fill="#E0E0E0"/>
  <path d="M321 485c4 2 6 4 8 8v3l-4 1-3 1h-6l1-4 1-3 3-6Z" fill="#E1E1E1"/>
  <path d="M815 501h15l-5 11-7-5-2-2-1-4Z" fill="#E0E0E0"/>
  <path d="M839 472h5c-1 5-2 8-5 12l-5-5-2-2-2-4 9-1Z" fill="#E1E1E1"/>
  <path d="M822 515c0 5-1 7-4 11h-3l-4-4-2-3-1-3 14-1Z" fill="#E0E0E0"/>
  <path d="M330 499h3l3 4 1 2 1 5-13 1 5-12Z" fill="#E1E1E1"/>
  <path d="M348 526h3l3 4 1 2v5l-12 1 5-12Z" fill="#E0E0E0"/>
  <path d="m326 469-1 4-1 3-4 5-6-10 4-1 2-1h6Z" fill="gray"/>
  <path d="m852 458 5 5 2 2 1 3-13 1 5-11Z" fill="#7E7E7E"/>
  <path d="m830 502 7 8a558 558 0 0 1-8 2l-4-1 5-9Z" fill="gray"/>
  <path d="m823 517 5 4v2h2v2l-12 1 5-9Z" fill="#7F7F7F"/>
  <path d="M521 423v10l-1 3v2l-3-1 4-14Z" fill="#5D5D5D"/>
  <path d="m602 445 5 1v1h-4l-3 1-5 1v-3c4-2 4-2 7-1Z" fill="#848484"/>
  <path d="m855 416 7 4-1 3-6-3v-4Z" fill="#101010"/>
  <path d="m494 413 2 1-4 10v-7l1-2 1-2Z" fill="#6D6D6D"/>
</svg>
